HIERARCHY
ROOT Hips
{
  OFFSET 49.6852 86.7379 5.25639
  CHANNELS 6 Xposition Yposition Zposition Zrotation Xrotation Yrotation
  JOINT spine
  {
    OFFSET 0 6.84637 0.3937
    CHANNELS 3 Zrotation Xrotation Yrotation
    JOINT spine1
    {
      OFFSET 0 9.49621 0
      CHANNELS 3 Zrotation Xrotation Yrotation
      JOINT spine2
      {
        OFFSET 0 9.09909 0
        CHANNELS 3 Zrotation Xrotation Yrotation
        JOINT Neck
        {
          OFFSET 0 23.3612 1.11378
          CHANNELS 3 Zrotation Xrotation Yrotation
          JOINT Head
          {
            OFFSET 0 7.05802 0
            CHANNELS 3 Zrotation Xrotation Yrotation
            End Site
            {
              OFFSET 0 17.0844 -5.63419
            }
          }
        }
        JOINT RightShoulder
        {
          OFFSET -3.83136 9.82631 -0.533491
          CHANNELS 3 Zrotation Xrotation Yrotation
          JOINT RightArm
          {
            OFFSET 0 12.8881 0
            CHANNELS 3 Zrotation Xrotation Yrotation
            JOINT RightArmRoll
            {
              OFFSET 0 6.50616 0
              CHANNELS 3 Zrotation Xrotation Yrotation
              JOINT RightForeArm
              {
                OFFSET 0 18.9501 0
                CHANNELS 3 Zrotation Xrotation Yrotation
                JOINT RightForeArmRoll
                {
                  OFFSET 0 7.30092 0
                  CHANNELS 3 Zrotation Xrotation Yrotation
                  JOINT RightHand
                  {
                    OFFSET 0 14.6514 0
                    CHANNELS 3 Zrotation Xrotation Yrotation
                    End Site
                    {
                      OFFSET 0 0 0
                    }
                  }
                }
              }
            }
          }
        }
        JOINT LeftShoulder
        {
          OFFSET 3.83136 9.82631 -0.533491
          CHANNELS 3 Zrotation Xrotation Yrotation
          JOINT LeftArm
          {
            OFFSET 0 12.8881 0
            CHANNELS 3 Zrotation Xrotation Yrotation
            JOINT LeftArmRoll
            {
              OFFSET 0 6.50617 0
              CHANNELS 3 Zrotation Xrotation Yrotation
              JOINT LeftForeArm
              {
                OFFSET 0 18.9501 0
                CHANNELS 3 Zrotation Xrotation Yrotation
                JOINT LeftForeArmRoll
                {
                  OFFSET 0 7.30092 0
                  CHANNELS 3 Zrotation Xrotation Yrotation
                  JOINT LeftHand
                  {
                    OFFSET 0 14.6514 0
                    CHANNELS 3 Zrotation Xrotation Yrotation
                    End Site
                    {
                      OFFSET 0 0 0
                    }
                  }
                }
              }
            }
          }
        }
      }
    }
  }
  JOINT RightUpLeg
  {
    OFFSET -6.06837 -1.11278 -0.933477
    CHANNELS 3 Zrotation Xrotation Yrotation
    JOINT RightUpLegRoll
    {
      OFFSET 0 17.1796 0
      CHANNELS 3 Zrotation Xrotation Yrotation
      JOINT RightLeg
      {
        OFFSET 0 -21.2743 0
        CHANNELS 3 Zrotation Xrotation Yrotation
        JOINT RightLegRoll
        {
          OFFSET 0 21.3439 0
          CHANNELS 3 Zrotation Xrotation Yrotation
          JOINT RightFoot
          {
            OFFSET 0 17.7652 0
            CHANNELS 3 Zrotation Xrotation Yrotation
            JOINT RightToeBase
            {
              OFFSET 0 14.8508 0
              CHANNELS 3 Zrotation Xrotation Yrotation
              End Site
              {
                OFFSET 0.0062947 7.19213 -0.829005
              }
            }
          }
        }
      }
    }
  }
  JOINT LeftUpLeg
  {
    OFFSET 6.06837 -1.11278 -0.933477
    CHANNELS 3 Zrotation Xrotation Yrotation
    JOINT LeftUpLegRoll
    {
      OFFSET 0 17.1797 0
      CHANNELS 3 Zrotation Xrotation Yrotation
      JOINT LeftLeg
      {
        OFFSET 0 21.2742 0
        CHANNELS 3 Zrotation Xrotation Yrotation
        JOINT LeftLegRoll
        {
          OFFSET 0 21.5412 0
          CHANNELS 3 Zrotation Xrotation Yrotation
          JOINT LeftFoot
          {
            OFFSET 0 17.5679 0
            CHANNELS 3 Zrotation Xrotation Yrotation
            JOINT LeftToeBase
            {
              OFFSET 0 14.8508 0
              CHANNELS 3 Zrotation Xrotation Yrotation
              End Site
              {
                OFFSET -0.0282102 7.19214 -0.829005
              }
            }
          }
        }
      }
    }
  }
}
MOTION
Frames: 5
Frame Time: 0.00208333
53.3271 86.078 3.56891 2.08451 2.36342 42.2835 3.38762 -0.629019 1.47264 6.78269 2.8115 2.53029 6.76018 4.44925 2.41889 -41.6805 -8.34387 10.966 23.2095 14.9513 5.01075 15.6288 5.54754 14.7672 -152.376 60.9219 -103.466 1.25262e-005 -5.19322e-005 -9.43978e-006 22.4643 25.1187 -6.77935 -5.63958e-006 -1.2733e-005 -2.99999 8.0289 -4.95074 0.697219 -92.0447 -13.4679 7.28444 -72.9075 2.15787 19.7039 1.16947e-006 -5.90995e-007 3.53717e-006 -30.9424 58.6559 15.4124 -2.78393e-006 9.29764e-006 2.99999 -8.03039 -4.9512 -0.697282 173.817 14.8291 3.55195 180 7.01562e-015 178.989 174.108 30.1956 -178.855 -1.9828e-006 2.18575e-006 0.467115 -37.2443 77.9352 36.3517 8.13649 25.2326 -3.48773 173.716 20.025 7.80307 4.54188e-006 -4.6773e-006 -1.39698 -1.39604 -24.267 0.210786 1.96685e-006 -3.53242e-006 -1.02315 22.9739 71.3025 -22.8847 -8.1365 25.2327 3.48774 
53.3216 86.0829 3.56985 2.0768 2.35986 42.2479 3.38313 -0.626613 1.47332 6.77367 2.81623 2.53028 6.75116 4.454 2.41903 -41.6596 -8.29041 11.0112 23.1723 14.9412 5.0417 15.6625 5.545 14.7511 -152.432 60.9254 -103.468 1.25262e-005 -5.19322e-005 -9.43979e-006 22.4882 25.0993 -6.77091 -5.63958e-006 -1.2733e-005 -2.99999 8.0289 -4.95074 0.697219 -92.0542 -13.4645 7.283 -72.9115 2.12676 19.766 1.16947e-006 -5.90995e-007 3.53717e-006 -30.9338 58.7206 15.4291 -2.78393e-006 9.29764e-006 2.99999 -8.03039 -4.9512 -0.697282 173.836 14.8398 3.53556 180 7.01562e-015 178.989 174.109 30.1802 -178.855 -1.9828e-006 2.18575e-006 0.467533 -37.198 77.9181 36.2986 8.13649 25.2326 -3.48773 173.735 20.0311 7.79136 4.54188e-006 -4.6773e-006 -1.39594 -1.39398 -24.2643 0.2116 1.96685e-006 -3.53242e-006 -1.02306 22.9645 71.3032 -22.8844 -8.1365 25.2327 3.48774 
53.29 86.0829 3.56787 2.0693 2.35608 42.2125 3.37864 -0.624287 1.47398 6.76466 2.8208 2.53023 6.74215 4.45859 2.41914 -41.6371 -8.23656 11.0562 23.1349 14.9308 5.07266 15.6975 5.54241 14.7346 -152.489 60.9295 -103.469 1.25262e-005 -5.19322e-005 -9.43979e-006 22.5125 25.0792 -6.76219 -5.63958e-006 -1.2733e-005 -2.99999 8.0289 -4.95074 0.697219 -92.0631 -13.4612 7.28161 -72.9152 2.09664 19.8292 1.16947e-006 -5.90995e-007 3.53717e-006 -30.9248 58.7865 15.446 -2.78393e-006 9.29764e-006 2.99999 -8.03039 -4.9512 -0.697282 173.855 14.8501 3.51904 180 7.01562e-015 178.988 174.111 30.1646 -178.856 -1.9828e-006 2.18575e-006 0.467969 -37.1517 77.9009 36.2455 8.13649 25.2326 -3.48773 173.754 20.0369 7.77926 4.54188e-006 -4.6773e-006 -1.3949 -1.39209 -24.2614 0.212365 1.96685e-006 -3.53242e-006 -1.02295 22.9552 71.3039 -22.8843 -8.1365 25.2327 3.48774 
53.2691 86.0898 3.56719 2.06214 2.35214 42.1769 3.37413 -0.622028 1.4746 6.75559 2.82524 2.53018 6.73308 4.46305 2.41924 -41.6134 -8.18244 11.1011 23.0973 14.9205 5.10356 15.7335 5.53978 14.7176 -152.548 60.9341 -103.47 1.25262e-005 -5.19322e-005 -9.43979e-006 22.5373 25.0588 -6.75329 -5.63958e-006 -1.2733e-005 -2.99999 8.0289 -4.95074 0.697219 -92.0713 -13.4579 7.28024 -72.9187 2.06814 19.8926 1.16947e-006 -5.90995e-007 3.53717e-006 -30.9155 58.8523 15.4626 -2.78393e-006 9.29764e-006 2.99999 -8.03039 -4.9512 -0.697282 173.874 14.86 3.50248 180 7.01561e-015 178.988 174.113 30.149 -178.857 -1.9828e-006 2.18575e-006 0.46842 -37.1053 77.8837 36.1923 8.13649 25.2326 -3.48773 173.774 20.0422 7.76688 4.54188e-006 -4.6773e-006 -1.39386 -1.39038 -24.2583 0.213089 1.96685e-006 -3.53242e-006 -1.02283 22.9462 71.3048 -22.8843 -8.1365 25.2327 3.48774 
53.2659 86.09 3.56079 2.05544 2.3481 42.1413 3.36957 -0.619822 1.4752 6.74643 2.82958 2.53017 6.72392 4.4674 2.41939 -41.5885 -8.12819 11.1458 23.0596 14.9104 5.13433 15.7703 5.53711 14.7003 -152.608 60.9394 -103.471 1.25262e-005 -5.19322e-005 -9.43978e-006 22.5623 25.0383 -6.74427 -5.63958e-006 -1.2733e-005 -2.99999 8.0289 -4.95074 0.697219 -92.079 -13.4547 7.2789 -72.9219 2.04187 19.9558 1.16947e-006 -5.90995e-007 3.53717e-006 -30.9061 58.9167 15.4786 -2.78393e-006 9.29764e-006 2.99999 -8.03039 -4.9512 -0.697282 173.892 14.8695 3.48597 180 7.01561e-015 178.988 174.115 30.1332 -178.857 -1.9828e-006 2.18575e-006 0.468886 -37.0587 77.8665 36.1391 8.13649 25.2326 -3.48773 173.793 20.0468 7.7543 4.54188e-006 -4.6773e-006 -1.39281 -1.38886 -24.255 0.21378 1.96685e-006 -3.53242e-006 -1.02268 22.9373 71.3058 -22.8845 -8.1365 25.2327 3.48774 
